<?xml version="1.0" encoding="UTF-8"?>
<svg id="Layer_1" xmlns="http://www.w3.org/2000/svg" version="1.1" viewBox="0 0 245.68 386.15">
  <!-- Generator: Adobe Illustrator 29.6.1, SVG Export Plug-In . SVG Version: 2.1.1 Build 9)  -->
  <defs>
    <style>
      .st0 {
        fill: none;
      }

      .st1 {
        fill: #d3a31b;
      }

      .st2 {
        fill: #0d1b6d;
      }
    </style>
  </defs>
  <polygon class="st0" points="134.73 199.97 134.73 132.14 94.56 199.97 134.73 199.97"/>
  <path class="st1" d="M145.53,211.2v-119.66l-70.41,119.66h70.41ZM134.73,199.97h-40.17l40.17-67.82v67.82Z"/>
  <path class="st1" d="M214.65,261.31v-61.34h-18.58V13.34h-63.07L14.64,214.66l23.76,47.09h96.33v35.86h-18.57v61.34h98.49v-61.34h-18.58v-36.29h18.58ZM203.42,308.4v39.31h-76.03v-39.31h18.14v-57.89H45.31l-18.14-35.42,27.46-46.59.25-.42L139.48,24.58h45.79v186.62h18.15v39.31h-18.15v57.89h18.15Z"/>
  <path class="st2" d="M203.42,250.51v-39.31h-18.15V24.58h-45.79L54.88,168.08c.09-.06.19-.11.31-.11.31,0,.57.25.57.57s-.25.57-.57.57-.57-.25-.57-.57c0-.01,0-.03,0-.04l-27.46,46.59,18.14,35.42h100.22v57.89h-18.14v39.31h76.03v-39.31h-18.15v-57.89h18.15ZM193.49,213.15c.31,0,.57.25.57.57s-.25.57-.57.57-.57-.25-.57-.57.25-.57.57-.57ZM193.49,223.86c.31,0,.57.25.57.57s-.25.57-.57.57-.57-.25-.57-.57.25-.57.57-.57ZM193.49,234.29c.31,0,.57.25.57.57s-.25.57-.57.57-.57-.25-.57-.57.25-.57.57-.57ZM193.2,247.96c.63,0,1.13.51,1.13,1.13s-.51,1.13-1.13,1.13-1.13-.51-1.13-1.13.51-1.13,1.13-1.13ZM41.39,235.43c-.31,0-.57-.25-.57-.57s.25-.57.57-.57.57.25.57.57-.25.57-.57.57ZM41.39,225c-.31,0-.57-.25-.57-.57s.25-.57.57-.57.57.25.57.57-.25.57-.57.57ZM41.39,214.28c-.31,0-.57-.25-.57-.57s.25-.57.57-.57.57.25.57.57-.25.57-.57.57ZM41.39,202.99c-.31,0-.57-.25-.57-.57s.25-.57.57-.57.57.25.57.57-.25.57-.57.57ZM138,340.56c-.63,0-1.13-.51-1.13-1.13s.51-1.13,1.13-1.13,1.13.51,1.13,1.13-.51,1.13-1.13,1.13ZM138,329.27c-.63,0-1.13-.51-1.13-1.13s.51-1.13,1.13-1.13,1.13.51,1.13,1.13-.51,1.13-1.13,1.13ZM138,317.98c-.63,0-1.13-.51-1.13-1.13s.51-1.13,1.13-1.13,1.13.51,1.13,1.13-.51,1.13-1.13,1.13ZM193.2,315.71c.63,0,1.13.51,1.13,1.13s-.51,1.13-1.13,1.13-1.13-.51-1.13-1.13.51-1.13,1.13-1.13ZM193.2,327c.63,0,1.13.51,1.13,1.13s-.51,1.13-1.13,1.13-1.13-.51-1.13-1.13.51-1.13,1.13-1.13ZM193.2,338.3c.63,0,1.13.51,1.13,1.13s-.51,1.13-1.13,1.13-1.13-.51-1.13-1.13.51-1.13,1.13-1.13ZM179.69,134.1c.31,0,.57.25.57.57s-.25.57-.57.57-.57-.25-.57-.57.25-.57.57-.57ZM179.69,145.39c.31,0,.57.25.57.57s-.25.57-.57.57-.57-.25-.57-.57.25-.57.57-.57ZM179.69,156.68c.31,0,.57.25.57.57s-.25.57-.57.57-.57-.25-.57-.57.25-.57.57-.57ZM179.69,167.98c.31,0,.57.25.57.57s-.25.57-.57.57-.57-.25-.57-.57.25-.57.57-.57ZM179.69,179.27c.31,0,.57.25.57.57s-.25.57-.57.57-.57-.25-.57-.57.25-.57.57-.57ZM179.69,190.56c.31,0,.57.25.57.57s-.25.57-.57.57-.57-.25-.57-.57.25-.57.57-.57ZM179.69,201.86c.31,0,.57.25.57.57s-.25.57-.57.57-.57-.25-.57-.57.25-.57.57-.57ZM179.69,213.15c.31,0,.57.25.57.57s-.25.57-.57.57-.57-.25-.57-.57.25-.57.57-.57ZM179.69,223.86c.31,0,.57.25.57.57s-.25.57-.57.57-.57-.25-.57-.57.25-.57.57-.57ZM179.69,234.29c.31,0,.57.25.57.57s-.25.57-.57.57-.57-.25-.57-.57.25-.57.57-.57ZM165.89,134.1c.31,0,.57.25.57.57s-.25.57-.57.57-.57-.25-.57-.57.25-.57.57-.57ZM165.89,145.39c.31,0,.57.25.57.57s-.25.57-.57.57-.57-.25-.57-.57.25-.57.57-.57ZM165.89,156.68c.31,0,.57.25.57.57s-.25.57-.57.57-.57-.25-.57-.57.25-.57.57-.57ZM165.89,167.98c.31,0,.57.25.57.57s-.25.57-.57.57-.57-.25-.57-.57.25-.57.57-.57ZM165.89,179.27c.31,0,.57.25.57.57s-.25.57-.57.57-.57-.25-.57-.57.25-.57.57-.57ZM165.89,190.56c.31,0,.57.25.57.57s-.25.57-.57.57-.57-.25-.57-.57.25-.57.57-.57ZM165.89,201.86c.31,0,.57.25.57.57s-.25.57-.57.57-.57-.25-.57-.57.25-.57.57-.57ZM165.89,213.15c.31,0,.57.25.57.57s-.25.57-.57.57-.57-.25-.57-.57.25-.57.57-.57ZM165.89,223.86c.31,0,.57.25.57.57s-.25.57-.57.57-.57-.25-.57-.57.25-.57.57-.57ZM165.89,234.29c.31,0,.57.25.57.57s-.25.57-.57.57-.57-.25-.57-.57.25-.57.57-.57ZM152.08,134.1c.31,0,.57.25.57.57s-.25.57-.57.57-.57-.25-.57-.57.25-.57.57-.57ZM152.08,145.39c.31,0,.57.25.57.57s-.25.57-.57.57-.57-.25-.57-.57.25-.57.57-.57ZM152.08,156.68c.31,0,.57.25.57.57s-.25.57-.57.57-.57-.25-.57-.57.25-.57.57-.57ZM152.08,167.98c.31,0,.57.25.57.57s-.25.57-.57.57-.57-.25-.57-.57.25-.57.57-.57ZM152.08,179.27c.31,0,.57.25.57.57s-.25.57-.57.57-.57-.25-.57-.57.25-.57.57-.57ZM152.08,190.56c.31,0,.57.25.57.57s-.25.57-.57.57-.57-.25-.57-.57.25-.57.57-.57ZM152.08,201.86c.31,0,.57.25.57.57s-.25.57-.57.57-.57-.25-.57-.57.25-.57.57-.57ZM152.08,213.15c.31,0,.57.25.57.57s-.25.57-.57.57-.57-.25-.57-.57.25-.57.57-.57ZM152.08,223.86c.31,0,.57.25.57.57s-.25.57-.57.57-.57-.25-.57-.57.25-.57.57-.57ZM152.08,234.29c.31,0,.57.25.57.57s-.25.57-.57.57-.57-.25-.57-.57.25-.57.57-.57ZM110.68,134.1c.31,0,.57.25.57.57s-.25.57-.57.57-.57-.25-.57-.57.25-.57.57-.57ZM110.68,145.39c.31,0,.57.25.57.57s-.25.57-.57.57-.57-.25-.57-.57.25-.57.57-.57ZM96.59,134.1c.31,0,.57.25.57.57s-.25.57-.57.57-.57-.25-.57-.57.25-.57.57-.57ZM96.59,145.39c.31,0,.57.25.57.57s-.25.57-.57.57-.57-.25-.57-.57.25-.57.57-.57ZM96.59,156.68c.31,0,.57.25.57.57s-.25.57-.57.57-.57-.25-.57-.57.25-.57.57-.57ZM96.59,167.98c.31,0,.57.25.57.57s-.25.57-.57.57-.57-.25-.57-.57.25-.57.57-.57ZM82.79,134.1c.31,0,.57.25.57.57s-.25.57-.57.57-.57-.25-.57-.57.25-.57.57-.57ZM82.79,145.39c.31,0,.57.25.57.57s-.25.57-.57.57-.57-.25-.57-.57.25-.57.57-.57ZM82.79,156.68c.31,0,.57.25.57.57s-.25.57-.57.57-.57-.25-.57-.57.25-.57.57-.57ZM82.79,167.98c.31,0,.57.25.57.57s-.25.57-.57.57-.57-.25-.57-.57.25-.57.57-.57ZM82.79,179.27c.31,0,.57.25.57.57s-.25.57-.57.57-.57-.25-.57-.57.25-.57.57-.57ZM82.79,190.56c.31,0,.57.25.57.57s-.25.57-.57.57-.57-.25-.57-.57.25-.57.57-.57ZM68.99,145.39c.31,0,.57.25.57.57s-.25.57-.57.57-.57-.25-.57-.57.25-.57.57-.57ZM68.99,156.68c.31,0,.57.25.57.57s-.25.57-.57.57-.57-.25-.57-.57.25-.57.57-.57ZM68.99,167.98c.31,0,.57.25.57.57s-.25.57-.57.57-.57-.25-.57-.57.25-.57.57-.57ZM68.99,179.27c.31,0,.57.25.57.57s-.25.57-.57.57-.57-.25-.57-.57.25-.57.57-.57ZM68.99,190.56c.31,0,.57.25.57.57s-.25.57-.57.57-.57-.25-.57-.57.25-.57.57-.57ZM68.99,201.86c.31,0,.57.25.57.57s-.25.57-.57.57-.57-.25-.57-.57.25-.57.57-.57ZM68.99,213.15c.31,0,.57.25.57.57s-.25.57-.57.57-.57-.25-.57-.57.25-.57.57-.57ZM68.99,223.86c.31,0,.57.25.57.57s-.25.57-.57.57-.57-.25-.57-.57.25-.57.57-.57ZM68.99,234.29c.31,0,.57.25.57.57s-.25.57-.57.57-.57-.25-.57-.57.25-.57.57-.57ZM55.19,179.27c.31,0,.57.25.57.57s-.25.57-.57.57-.57-.25-.57-.57.25-.57.57-.57ZM55.19,190.56c.31,0,.57.25.57.57s-.25.57-.57.57-.57-.25-.57-.57.25-.57.57-.57ZM55.19,201.86c.31,0,.57.25.57.57s-.25.57-.57.57-.57-.25-.57-.57.25-.57.57-.57ZM55.19,213.15c.31,0,.57.25.57.57s-.25.57-.57.57-.57-.25-.57-.57.25-.57.57-.57ZM55.19,223.86c.31,0,.57.25.57.57s-.25.57-.57.57-.57-.25-.57-.57.25-.57.57-.57ZM55.19,234.29c.31,0,.57.25.57.57s-.25.57-.57.57-.57-.25-.57-.57.25-.57.57-.57ZM55.19,250.22c-.63,0-1.13-.51-1.13-1.13s.51-1.13,1.13-1.13,1.13.51,1.13,1.13-.51,1.13-1.13,1.13ZM68.99,250.22c-.63,0-1.13-.51-1.13-1.13s.51-1.13,1.13-1.13,1.13.51,1.13,1.13-.51,1.13-1.13,1.13ZM82.79,249.89c-.63,0-1.13-.51-1.13-1.13s.51-1.13,1.13-1.13,1.13.51,1.13,1.13-.51,1.13-1.13,1.13ZM82.79,223.86c.31,0,.57.25.57.57s-.25.57-.57.57-.57-.25-.57-.57.25-.57.57-.57ZM82.22,213.72c0-.31.25-.57.57-.57s.57.25.57.57-.25.57-.57.57-.57-.25-.57-.57ZM82.79,234.29c.31,0,.57.25.57.57s-.25.57-.57.57-.57-.25-.57-.57.25-.57.57-.57ZM96.59,249.89c-.63,0-1.13-.51-1.13-1.13s.51-1.13,1.13-1.13,1.13.51,1.13,1.13-.51,1.13-1.13,1.13ZM96.59,223.86c.31,0,.57.25.57.57s-.25.57-.57.57-.57-.25-.57-.57.25-.57.57-.57ZM96.02,213.72c0-.31.25-.57.57-.57s.57.25.57.57-.25.57-.57.57-.57-.25-.57-.57ZM96.59,234.29c.31,0,.57.25.57.57s-.25.57-.57.57-.57-.25-.57-.57.25-.57.57-.57ZM110.39,249.89c-.63,0-1.13-.51-1.13-1.13s.51-1.13,1.13-1.13,1.13.51,1.13,1.13-.51,1.13-1.13,1.13ZM110.68,223.86c.31,0,.57.25.57.57s-.25.57-.57.57-.57-.25-.57-.57.25-.57.57-.57ZM110.11,213.72c0-.31.25-.57.57-.57s.57.25.57.57-.25.57-.57.57-.57-.25-.57-.57ZM110.68,234.29c.31,0,.57.25.57.57s-.25.57-.57.57-.57-.25-.57-.57.25-.57.57-.57ZM124.19,250.22c-.63,0-1.13-.51-1.13-1.13s.51-1.13,1.13-1.13,1.13.51,1.13,1.13-.51,1.13-1.13,1.13ZM124.48,223.86c.31,0,.57.25.57.57s-.25.57-.57.57-.57-.25-.57-.57.25-.57.57-.57ZM123.91,213.72c0-.31.25-.57.57-.57s.57.25.57.57-.25.57-.57.57-.57-.25-.57-.57ZM124.48,234.29c.31,0,.57.25.57.57s-.25.57-.57.57-.57-.25-.57-.57.25-.57.57-.57ZM138,250.22c-.63,0-1.13-.51-1.13-1.13s.51-1.13,1.13-1.13,1.13.51,1.13,1.13-.51,1.13-1.13,1.13ZM138.28,223.86c.31,0,.57.25.57.57s-.25.57-.57.57-.57-.25-.57-.57.25-.57.57-.57ZM137.72,213.72c0-.31.25-.57.57-.57s.57.25.57.57-.25.57-.57.57-.57-.25-.57-.57ZM138.28,234.29c.31,0,.57.25.57.57s-.25.57-.57.57-.57-.25-.57-.57.25-.57.57-.57ZM145.53,211.2h-70.41l70.41-119.66v119.66ZM151.8,340.56c-.63,0-1.13-.51-1.13-1.13s.51-1.13,1.13-1.13,1.13.51,1.13,1.13-.51,1.13-1.13,1.13ZM151.8,329.27c-.63,0-1.13-.51-1.13-1.13s.51-1.13,1.13-1.13,1.13.51,1.13,1.13-.51,1.13-1.13,1.13ZM151.8,317.98c-.63,0-1.13-.51-1.13-1.13s.51-1.13,1.13-1.13,1.13.51,1.13,1.13-.51,1.13-1.13,1.13ZM151.8,306.69c-.63,0-1.13-.51-1.13-1.13s.51-1.13,1.13-1.13,1.13.51,1.13,1.13-.51,1.13-1.13,1.13ZM151.8,295.39c-.63,0-1.13-.51-1.13-1.13s.51-1.13,1.13-1.13,1.13.51,1.13,1.13-.51,1.13-1.13,1.13ZM151.8,284.1c-.63,0-1.13-.51-1.13-1.13s.51-1.13,1.13-1.13,1.13.51,1.13,1.13-.51,1.13-1.13,1.13ZM151.8,272.81c-.63,0-1.13-.51-1.13-1.13s.51-1.13,1.13-1.13,1.13.51,1.13,1.13-.51,1.13-1.13,1.13ZM151.8,261.52c-.63,0-1.13-.51-1.13-1.13s.51-1.13,1.13-1.13,1.13.51,1.13,1.13-.51,1.13-1.13,1.13ZM151.8,250.22c-.63,0-1.13-.51-1.13-1.13s.51-1.13,1.13-1.13,1.13.51,1.13,1.13-.51,1.13-1.13,1.13ZM165.6,340.56c-.63,0-1.13-.51-1.13-1.13s.51-1.13,1.13-1.13,1.13.51,1.13,1.13-.51,1.13-1.13,1.13ZM165.6,329.27c-.63,0-1.13-.51-1.13-1.13s.51-1.13,1.13-1.13,1.13.51,1.13,1.13-.51,1.13-1.13,1.13ZM165.6,317.98c-.63,0-1.13-.51-1.13-1.13s.51-1.13,1.13-1.13,1.13.51,1.13,1.13-.51,1.13-1.13,1.13ZM165.6,306.69c-.63,0-1.13-.51-1.13-1.13s.51-1.13,1.13-1.13,1.13.51,1.13,1.13-.51,1.13-1.13,1.13ZM165.6,295.39c-.63,0-1.13-.51-1.13-1.13s.51-1.13,1.13-1.13,1.13.51,1.13,1.13-.51,1.13-1.13,1.13ZM165.6,284.1c-.63,0-1.13-.51-1.13-1.13s.51-1.13,1.13-1.13,1.13.51,1.13,1.13-.51,1.13-1.13,1.13ZM165.6,272.81c-.63,0-1.13-.51-1.13-1.13s.51-1.13,1.13-1.13,1.13.51,1.13,1.13-.51,1.13-1.13,1.13ZM165.6,261.52c-.63,0-1.13-.51-1.13-1.13s.51-1.13,1.13-1.13,1.13.51,1.13,1.13-.51,1.13-1.13,1.13ZM165.6,250.22c-.63,0-1.13-.51-1.13-1.13s.51-1.13,1.13-1.13,1.13.51,1.13,1.13-.51,1.13-1.13,1.13ZM179.4,340.56c-.63,0-1.13-.51-1.13-1.13s.51-1.13,1.13-1.13,1.13.51,1.13,1.13-.51,1.13-1.13,1.13ZM179.4,329.27c-.63,0-1.13-.51-1.13-1.13s.51-1.13,1.13-1.13,1.13.51,1.13,1.13-.51,1.13-1.13,1.13ZM179.4,317.98c-.63,0-1.13-.51-1.13-1.13s.51-1.13,1.13-1.13,1.13.51,1.13,1.13-.51,1.13-1.13,1.13ZM179.4,306.69c-.63,0-1.13-.51-1.13-1.13s.51-1.13,1.13-1.13,1.13.51,1.13,1.13-.51,1.13-1.13,1.13ZM179.4,295.39c-.63,0-1.13-.51-1.13-1.13s.51-1.13,1.13-1.13,1.13.51,1.13,1.13-.51,1.13-1.13,1.13ZM179.4,284.1c-.63,0-1.13-.51-1.13-1.13s.51-1.13,1.13-1.13,1.13.51,1.13,1.13-.51,1.13-1.13,1.13ZM179.4,272.81c-.63,0-1.13-.51-1.13-1.13s.51-1.13,1.13-1.13,1.13.51,1.13,1.13-.51,1.13-1.13,1.13ZM179.4,261.52c-.63,0-1.13-.51-1.13-1.13s.51-1.13,1.13-1.13,1.13.51,1.13,1.13-.51,1.13-1.13,1.13ZM179.4,250.22c-.63,0-1.13-.51-1.13-1.13s.51-1.13,1.13-1.13,1.13.51,1.13,1.13-.51,1.13-1.13,1.13Z"/>
</svg>