<?xml version="1.0" encoding="UTF-8"?>
<svg id="Layer_1" xmlns="http://www.w3.org/2000/svg" version="1.1" viewBox="0 0 288 91.62">
  <!-- Generator: Adobe Illustrator 29.6.1, SVG Export Plug-In . SVG Version: 2.1.1 Build 9)  -->
  <defs>
    <style>
      .st0 {
        fill: #9b3f3a;
      }
    </style>
  </defs>
  <path class="st0" d="M271.76,74.98l-2.49-3.87h-1.53v8.18h1.41v-5.84l2.56,3.83h.05l2.58-3.86v5.87h1.44v-8.18h-1.53l-2.49,3.87ZM273.94,65.17l3.2-3.23-14.02-32.95h-7.29l-15.4,36.18h8.06l3.28-8.06h15.19l3.28,8.06h3.69ZM254.6,50.19l4.77-11.65,4.77,11.65h-9.54ZM76.12,11.57h1.24v3.26h.9v-3.26s1.24,0,1.24,0v-.83s-3.38,0-3.38,0v.83ZM83.3,10.74l-1.07,1.73-1.07-1.73h-.97s0,4.09,0,4.09h.89v-2.65s1.14,1.73,1.14,1.73h.02l1.15-1.75v2.67s.89,0,.89,0v-4.08s-.97,0-.97,0ZM265.74,73.71c0-1.6-1.16-2.6-3.04-2.6h-3.65v8.18h1.44v-2.85h1.8l2.01,2.85h1.69l-2.21-3.1c1.14-.32,1.95-1.13,1.95-2.49ZM260.49,75.17v-2.75h2.09c1.06,0,1.69.47,1.69,1.37,0,.84-.65,1.38-1.68,1.38h-2.1ZM276.62,71.77h.8v2.09h.58v-2.09s.8,0,.8,0v-.53h-2.17s0,.53,0,.53ZM45.15,18.88l-2.15-.57-.57-2.15,6.49-6.49H6.47v17.93h8.52l-3.14,3.14.57,2.15,2.15.57,5.86-5.86h.04l4.87-4.87,2.15.57.57,2.15-1.07,1.07-3.41,3.35.57,2.15,2.15.57,4.68-4.6v15.78l-7.5,7.5.57,2.15,2.15.57,8.68-8.68,2.02.53.56,2.15-2.66,2.67-1.76,1.75-1.58,1.58-3.34,3.34.57,2.15,2.15.57,6.67-6.68.51-.52,2.15.57.57,2.15-8.71,8.71h-.05s-4.72,4.71-4.72,4.71l.58,2.19,2.19.58,4.72-4.72v-.02s.56-.57.56-.57l2.15.57.57,2.15-7.05,7.05h0s-4.08,4.09-4.08,4.09l.57,2.15,2.15.57,11.93-11.93,2.14.56.57,2.15-5.29,5.21.57,2.15,2.15.57,9.66-9.57v-5.44l-2.33,2.33-2.15-.57-.57-2.15,6.45-6.41-.56-2.16-.85-.22-1.34-.36-1.96,1.96-2.15-.57-.57-2.15,11.57-11.85-.57-2.15-2.15-.57-2.84,2.84v-8.15l9.86-8.94h13.66V9.67h-20.51l-9.21,9.21ZM46.17,23.04l2.16.56.56,2.16-1.6,1.6-2.16-.56-.56-2.16,1.6-1.6ZM37,21.26l2.15.56.56,2.15-2.82,2.82-2.15-.56-.56-2.15,2.82-2.82ZM35.53,39.03l-2.15-.57-.57-2.15,7.09-6.9,2.15.57.57,2.15-7.09,6.9ZM42.43,65.08l-2.16-.56-.56-2.16,1.6-1.6,2.16.56.56,2.16-1.6,1.6ZM43.98,46.95l-2.15-.56-.56-2.16,2.82-2.82,2.15.56.56,2.15-2.82,2.82ZM47.76,37.67l-2.16-.56-.56-2.16,2.82-2.82,2.16.56.56,2.15-2.82,2.82ZM57.58,24.07l.57,2.15-4.08,4.08-2.15-.57-.57-2.15,4.08-4.08,2.15.57ZM153.93,58.14h-19.5v-7.54h16.94v-7.03h-16.94v-7.29h19.25v-7.03h-23.56l-3.49,3.52v32.4h27.3v-7.03ZM20.43,68.6l-1.6,1.6.56,2.16,2.16.56,1.6-1.6-.56-2.16-2.16-.56ZM23.29,56.71l-4.64,4.64.57,2.15,2.15.57,4.64-4.64-.57-2.15-2.15-.57ZM98.75,65.17h7.9v-28.64h12.97v-7.29h-30.23l-3.61,3.66v3.63h12.97v28.64ZM89.95,70.97c-2.51,0-4.29,1.93-4.29,4.24s1.75,4.22,4.27,4.22,4.29-1.93,4.29-4.24-1.75-4.22-4.27-4.22ZM89.95,78.11c-1.62,0-2.78-1.32-2.78-2.92s1.13-2.9,2.76-2.9,2.78,1.32,2.78,2.92-1.13,2.9-2.76,2.9ZM55.99,52.46l-2.48,2.48.57,2.15,2.15.57,2.48-2.48-.57-2.15-2.15-.57ZM281.86,71.24h-.62s-.69,1.11-.69,1.11l-.69-1.11h-.62s0,2.62,0,2.62h.57s0-1.7,0-1.7l.73,1.11h.02l.74-1.12v1.71h.57v-2.62ZM49.18,77.41l-1.6,1.6.56,2.16,2.16.56,1.6-1.6-.56-2.16-2.16-.56ZM26.83,39.25l-.57-2.15-2.15-.57-4.64,4.64.57,2.15,2.15.57,4.64-4.64ZM143.87,75.81h4.1v-1.29h-4.1v-2.13h4.63v-1.29h-6.07v8.18h6.12v-1.29h-4.69v-2.2ZM204.7,75.82c0,1.51-.78,2.28-2.06,2.28s-2.07-.82-2.07-2.34v-4.65h-1.44v4.71c0,2.37,1.36,3.6,3.48,3.6s3.52-1.23,3.52-3.67v-4.64h-1.44v4.71ZM193.02,70.97c-2.51,0-4.29,1.93-4.29,4.24s1.75,4.22,4.27,4.22,4.29-1.93,4.29-4.24-1.75-4.22-4.27-4.22ZM193.02,78.11c-1.62,0-2.78-1.32-2.78-2.92s1.14-2.9,2.76-2.9,2.78,1.32,2.78,2.92-1.13,2.9-2.76,2.9ZM240.97,79.3h1.44v-3.33h4.13v-1.31h-4.13v-2.23h4.65v-1.31h-6.09v8.18ZM194.92,44.49h-12.33l-3.28,3.31v3.51h7.95v5.13c-.99.72-2.12,1.26-3.39,1.62-1.27.36-2.62.54-4.05.54-1.57,0-3.03-.28-4.36-.85-1.33-.56-2.49-1.36-3.46-2.39-.97-1.03-1.73-2.23-2.26-3.62-.53-1.39-.8-2.9-.8-4.54v-.1c0-1.54.26-2.99.8-4.34.53-1.35,1.27-2.53,2.21-3.54.94-1.01,2.04-1.81,3.28-2.41,1.25-.6,2.59-.9,4.03-.9,1.03,0,1.97.09,2.82.26.86.17,1.65.41,2.39.72.74.31,1.45.69,2.13,1.13.46.3.92.64,1.39,1.01l5.51-5.58c-.88-.74-1.8-1.41-2.74-2-.99-.62-2.05-1.13-3.18-1.54-1.13-.41-2.35-.73-3.67-.95-1.32-.22-2.78-.33-4.39-.33-2.7,0-5.21.49-7.52,1.46-2.31.97-4.3,2.31-5.98,4-1.68,1.69-2.99,3.66-3.93,5.9-.94,2.24-1.41,4.64-1.41,7.21v.1c0,2.67.46,5.13,1.39,7.39.92,2.26,2.21,4.21,3.87,5.85,1.66,1.64,3.64,2.92,5.95,3.85,2.31.92,4.87,1.39,7.67,1.39,3.28,0,6.2-.56,8.75-1.67,2.55-1.11,4.75-2.45,6.59-4.03v-15.6ZM219.39,71.11h-3.23v8.18h1.44v-2.63h1.62c1.8,0,3.27-.96,3.27-2.81,0-1.67-1.2-2.75-3.11-2.75ZM219.28,75.37h-1.67v-2.94h1.67c1.08,0,1.76.5,1.76,1.47,0,.88-.68,1.47-1.76,1.47ZM207.77,72.45h2.59v6.85h1.45v-6.85h2.59v-1.33h-6.64v1.33ZM225.65,75.81h4.1v-1.29h-4.1v-2.13h4.63v-1.29h-6.07v8.18h6.12v-1.29h-4.69v-2.2ZM183.35,73.71c0-1.6-1.16-2.6-3.04-2.6h-3.65v8.18h1.44v-2.85h1.8l2.01,2.85h1.69l-2.21-3.1c1.14-.32,1.95-1.13,1.95-2.49ZM178.1,75.17v-2.75h2.09c1.06,0,1.69.47,1.69,1.37,0,.84-.66,1.38-1.68,1.38h-2.1ZM238.97,73.71c0-1.6-1.16-2.6-3.04-2.6h-3.65v8.18h1.44v-2.85h1.8l2.01,2.85h1.69l-2.21-3.1c1.14-.32,1.95-1.13,1.95-2.49ZM233.72,75.17v-2.75h2.09c1.06,0,1.69.47,1.69,1.37,0,.84-.65,1.38-1.68,1.38h-2.1ZM117.12,74.98l-2.49-3.87h-1.53v8.18h1.41v-5.84l2.56,3.83h.05l2.58-3.86v5.87h1.44v-8.18h-1.53l-2.49,3.87ZM126.38,71.06l-3.6,8.24h1.47l.84-1.98h3.87l.83,1.98h1.52l-3.6-8.24h-1.33ZM125.62,76.05l1.4-3.28,1.41,3.28h-2.82ZM101.63,75.82c0,1.51-.78,2.28-2.06,2.28s-2.07-.82-2.07-2.34v-4.65h-1.44v4.71c0,2.37,1.36,3.6,3.48,3.6s3.52-1.23,3.52-3.67v-4.64h-1.44v4.71ZM170.03,75.81h4.1v-1.29h-4.1v-2.13h4.63v-1.29h-6.07v8.18h6.12v-1.29h-4.69v-2.2ZM104.7,72.45h2.59v6.85h1.45v-6.85h2.59v-1.33h-6.64v1.33ZM252.81,70.97c-2.51,0-4.29,1.93-4.29,4.24s1.75,4.22,4.27,4.22,4.29-1.93,4.29-4.24-1.75-4.22-4.27-4.22ZM252.81,78.11c-1.62,0-2.78-1.32-2.78-2.92s1.13-2.9,2.76-2.9,2.78,1.32,2.78,2.92-1.13,2.9-2.76,2.9ZM155.93,75.82c0,1.51-.78,2.28-2.06,2.28s-2.07-.82-2.07-2.34v-4.65h-1.44v4.71c0,2.37,1.36,3.6,3.48,3.6s3.52-1.23,3.52-3.67v-4.64h-1.44v4.71ZM162.94,77.4l-2.47-6.29h-1.59l3.4,8.24h1.26l3.4-8.24h-1.55l-2.45,6.29ZM138.67,76.77l-4.38-5.66h-1.33v8.18h1.41v-5.82l4.51,5.82h1.2v-8.18h-1.41v5.66ZM226.81,52.34c2.29-.85,4.15-2.2,5.57-4.03,1.42-1.83,2.13-4.2,2.13-7.11v-.1c0-3.42-1.03-6.16-3.08-8.21-2.43-2.43-5.92-3.64-10.47-3.64h-16.42v35.92h7.9v-11.5h6.21l7.7,11.5h4.83l2.6-2.63-6.97-10.2ZM226.5,41.64c0,1.55-.52,2.79-1.57,3.71-1.04.93-2.54,1.39-4.49,1.39h-8.01v-10.37h7.85c1.95,0,3.47.43,4.57,1.29,1.09.86,1.64,2.15,1.64,3.87v.1Z"/>
</svg>