<?xml version="1.0" encoding="UTF-8"?>
<svg id="Layer_1" xmlns="http://www.w3.org/2000/svg" version="1.1" viewBox="0 0 89.05 91.62">
  <!-- Generator: Adobe Illustrator 29.6.1, SVG Export Plug-In . SVG Version: 2.1.1 Build 9)  -->
  <defs>
    <style>
      .st0 {
        fill: #9b3f3a;
      }
    </style>
  </defs>
  <path class="st0" d="M76.12,11.57h1.24v3.26h.9v-3.26s1.24,0,1.24,0v-.83s-3.38,0-3.38,0v.83ZM83.3,10.74l-1.07,1.73-1.07-1.73h-.97s0,4.09,0,4.09h.89v-2.65s1.14,1.73,1.14,1.73h.02l1.15-1.75v2.67s.89,0,.89,0v-4.08s-.97,0-.97,0ZM45.15,18.88l-2.15-.57-.57-2.15,6.49-6.49H6.47v17.93h8.52l-3.14,3.14.57,2.15,2.15.57,5.86-5.86h.04l4.87-4.87,2.15.57.57,2.15-1.07,1.07-3.41,3.35.57,2.15,2.15.57,4.68-4.6v15.78l-7.5,7.5.57,2.15,2.15.57,8.68-8.68,2.02.53.56,2.15-2.66,2.67-1.76,1.75-1.58,1.58-3.34,3.34.57,2.15,2.15.57,6.67-6.68.51-.52,2.15.57.57,2.15-8.71,8.71h-.05s-4.72,4.71-4.72,4.71l.58,2.19,2.19.58,4.72-4.72v-.02s.56-.57.56-.57l2.15.57.57,2.15-7.05,7.05h0s-4.08,4.09-4.08,4.09l.57,2.15,2.15.57,11.93-11.93,2.14.56.57,2.15-5.29,5.21.57,2.15,2.15.57,9.66-9.57v-5.44l-2.33,2.33-2.15-.57-.57-2.15,6.45-6.41-.56-2.16-.85-.22-1.34-.36-1.96,1.96-2.15-.57-.57-2.15,11.57-11.85-.57-2.15-2.15-.57-2.84,2.84v-8.15l9.86-8.94h13.66V9.67h-20.51l-9.21,9.21ZM46.17,23.04l2.16.56.56,2.16-1.6,1.6-2.16-.56-.56-2.16,1.6-1.6ZM37,21.26l2.15.56.56,2.15-2.82,2.82-2.15-.56-.56-2.15,2.82-2.82ZM35.53,39.03l-2.15-.57-.57-2.15,7.09-6.9,2.15.57.57,2.15-7.09,6.9ZM42.43,65.08l-2.16-.56-.56-2.16,1.6-1.6,2.16.56.56,2.16-1.6,1.6ZM43.98,46.95l-2.15-.56-.56-2.16,2.82-2.82,2.15.56.56,2.15-2.82,2.82ZM47.76,37.67l-2.16-.56-.56-2.16,2.82-2.82,2.16.56.56,2.15-2.82,2.82ZM57.58,24.07l.57,2.15-4.08,4.08-2.15-.57-.57-2.15,4.08-4.08,2.15.57ZM20.43,68.6l-1.6,1.6.56,2.16,2.16.56,1.6-1.6-.56-2.16-2.16-.56ZM23.29,56.71l-4.64,4.64.57,2.15,2.15.57,4.64-4.64-.57-2.15-2.15-.57ZM55.99,52.46l-2.48,2.48.57,2.15,2.15.57,2.48-2.48-.57-2.15-2.15-.57ZM49.18,77.41l-1.6,1.6.56,2.16,2.16.56,1.6-1.6-.56-2.16-2.16-.56ZM26.83,39.25l-.57-2.15-2.15-.57-4.64,4.64.57,2.15,2.15.57,4.64-4.64Z"/>
</svg>